<?xml version="1.0" encoding="UTF-8" standalone="no"?>
<!DOCTYPE svg PUBLIC "-//W3C//DTD SVG 1.1//EN"
 "http://www.w3.org/Graphics/SVG/1.1/DTD/svg11.dtd">
<!-- Generated by graphviz version 6.0.1 (20220911.1526)
 -->
<!-- Pages: 1 -->
<svg width="239pt" height="116pt"
 viewBox="0.00 0.00 239.00 116.00" xmlns="http://www.w3.org/2000/svg" xmlns:xlink="http://www.w3.org/1999/xlink">
<g id="graph0" class="graph" transform="scale(1 1) rotate(0) translate(4 112)">
<polygon fill="white" stroke="none" points="-4,4 -4,-112 235,-112 235,4 -4,4"/>
<!-- Operator_96e3579f&#45;59fa&#45;4d40&#45;9c5c&#45;964348c1202b -->
<g id="node1" class="node">
<title>Operator_96e3579f&#45;59fa&#45;4d40&#45;9c5c&#45;964348c1202b</title>
<ellipse fill="lightblue" stroke="black" cx="115.5" cy="-90" rx="30.59" ry="18"/>
<text text-anchor="middle" x="115.5" y="-86.3" font-family="Times New Roman,serif" font-size="14.00">XOR</text>
</g>
<!-- Transition_6d11cdbf&#45;e306&#45;48ac&#45;bf93&#45;4220d4e79bd5 -->
<g id="node2" class="node">
<title>Transition_6d11cdbf&#45;e306&#45;48ac&#45;bf93&#45;4220d4e79bd5</title>
<polygon fill="lightgrey" stroke="black" points="65,-36 0,-36 0,0 65,0 65,-36"/>
<text text-anchor="middle" x="32.5" y="-14.3" font-family="Times New Roman,serif" font-size="14.00">Action 1</text>
</g>
<!-- Operator_96e3579f&#45;59fa&#45;4d40&#45;9c5c&#45;964348c1202b&#45;&gt;Transition_6d11cdbf&#45;e306&#45;48ac&#45;bf93&#45;4220d4e79bd5 -->
<g id="edge1" class="edge">
<title>Operator_96e3579f&#45;59fa&#45;4d40&#45;9c5c&#45;964348c1202b&#45;&gt;Transition_6d11cdbf&#45;e306&#45;48ac&#45;bf93&#45;4220d4e79bd5</title>
<path fill="none" stroke="black" d="M98.7,-74.83C87.82,-65.66 73.38,-53.48 60.76,-42.84"/>
<polygon fill="black" stroke="black" points="62.69,-39.88 52.79,-36.11 58.18,-45.24 62.69,-39.88"/>
</g>
<!-- Transition_7b80bcaa&#45;c00a&#45;4cd9&#45;8740&#45;2b29c478f167 -->
<g id="node3" class="node">
<title>Transition_7b80bcaa&#45;c00a&#45;4cd9&#45;8740&#45;2b29c478f167</title>
<polygon fill="lightgrey" stroke="black" points="148,-36 83,-36 83,0 148,0 148,-36"/>
<text text-anchor="middle" x="115.5" y="-14.3" font-family="Times New Roman,serif" font-size="14.00">Action 2</text>
</g>
<!-- Operator_96e3579f&#45;59fa&#45;4d40&#45;9c5c&#45;964348c1202b&#45;&gt;Transition_7b80bcaa&#45;c00a&#45;4cd9&#45;8740&#45;2b29c478f167 -->
<g id="edge2" class="edge">
<title>Operator_96e3579f&#45;59fa&#45;4d40&#45;9c5c&#45;964348c1202b&#45;&gt;Transition_7b80bcaa&#45;c00a&#45;4cd9&#45;8740&#45;2b29c478f167</title>
<path fill="none" stroke="black" d="M115.5,-71.7C115.5,-63.98 115.5,-54.71 115.5,-46.11"/>
<polygon fill="black" stroke="black" points="119,-46.1 115.5,-36.1 112,-46.1 119,-46.1"/>
</g>
<!-- Transition_f6621bf1&#45;5c1e&#45;4672&#45;a629&#45;904720ce153d -->
<g id="node4" class="node">
<title>Transition_f6621bf1&#45;5c1e&#45;4672&#45;a629&#45;904720ce153d</title>
<polygon fill="lightgrey" stroke="black" points="231,-36 166,-36 166,0 231,0 231,-36"/>
<text text-anchor="middle" x="198.5" y="-14.3" font-family="Times New Roman,serif" font-size="14.00">Action 3</text>
</g>
<!-- Operator_96e3579f&#45;59fa&#45;4d40&#45;9c5c&#45;964348c1202b&#45;&gt;Transition_f6621bf1&#45;5c1e&#45;4672&#45;a629&#45;904720ce153d -->
<g id="edge3" class="edge">
<title>Operator_96e3579f&#45;59fa&#45;4d40&#45;9c5c&#45;964348c1202b&#45;&gt;Transition_f6621bf1&#45;5c1e&#45;4672&#45;a629&#45;904720ce153d</title>
<path fill="none" stroke="black" d="M132.3,-74.83C143.18,-65.66 157.62,-53.48 170.24,-42.84"/>
<polygon fill="black" stroke="black" points="172.82,-45.24 178.21,-36.11 168.31,-39.88 172.82,-45.24"/>
</g>
</g>
</svg>
